<svg id="Layer_1" data-name="Layer 1" xmlns="http://www.w3.org/2000/svg" viewBox="0 0 24 12"><defs><style>.cls-1{fill:#0500bf;}</style></defs><title>doc</title><path class="cls-1" d="M235.06,241.68v10h-22v-10h22m0-1h-22a1,1,0,0,0-1,1v10a1,1,0,0,0,1,1h22a1,1,0,0,0,1-1v-10a1,1,0,0,0-1-1Z" transform="translate(-212.06 -240.68)"/><path class="cls-1" d="M217.38,243.88h-1.89a.56.56,0,0,0-.57.51v4.68a.52.52,0,0,0,.57.51h2c3.61,0,3.7-5.71-.07-5.71Zm-1.37,4.7v-3.7h1.37c2.33,0,2.23,3.7,0,3.7Z" transform="translate(-212.06 -240.68)"/><path class="cls-1" d="M224.22,243.68a3,3,0,0,0-3.11,3,2.87,2.87,0,0,0,3,3h.14a2.88,2.88,0,0,0,3-3,3,3,0,0,0-3-3Zm-.09,5a2,2,0,1,1,2-2,1.89,1.89,0,0,1-2,2Z" transform="translate(-212.06 -240.68)"/><path class="cls-1" d="M231,243.74a2.78,2.78,0,0,0-2.9,3A3,3,0,0,0,233,249a.57.57,0,0,0,.09-.77.56.56,0,0,0-.44-.21.51.51,0,0,0-.32.11,1.93,1.93,0,0,1-1.29.53,1.81,1.81,0,0,1-1.88-2,1.78,1.78,0,0,1,1.88-1.91,1.42,1.42,0,0,1,1.15.45.56.56,0,0,0,.4.16.55.55,0,0,0,.36-.14.56.56,0,0,0,0-.8,2.7,2.7,0,0,0-1.89-.73Z" transform="translate(-212.06 -240.68)"/></svg>