<svg id="Layer_1" data-name="Layer 1" xmlns="http://www.w3.org/2000/svg" viewBox="0 0 24 12"><defs><style>.cls-1{fill:#ff5559;}</style></defs><title>pdf</title><path class="cls-1" d="M235.08,241.76v10h-22v-10h22m0-1h-22a1,1,0,0,0-1,1v10a1,1,0,0,0,1,1h22a1,1,0,0,0,1-1v-10a1,1,0,0,0-1-1Z" transform="translate(-212.08 -240.76)"/><path class="cls-1" d="M215.77,244.35a.59.59,0,0,1,.58-.59h2a2.14,2.14,0,0,1,0,4.28H216.9v1.13a.54.54,0,0,1-.55.59.58.58,0,0,1-.58-.59Zm1.13.49V247h1.43a1.07,1.07,0,0,0,0-2.13Z" transform="translate(-212.08 -240.76)"/><path class="cls-1" d="M222.12,249.76a.54.54,0,0,1-.59-.53v-4.86a.58.58,0,0,1,.59-.53h2c3.91,0,3.83,5.92.08,5.92Zm.54-4.88v3.83h1.42c2.31,0,2.41-3.83,0-3.83h-1.42Z" transform="translate(-212.08 -240.76)"/><path class="cls-1" d="M229.3,245v1.36h2.18a.66.66,0,0,1,.62.61.59.59,0,0,1-.62.51H229.3v1.8a.51.51,0,0,1-.51.53.54.54,0,0,1-.61-.53v-4.86a.54.54,0,0,1,.61-.53h3a.53.53,0,0,1,.6.53.59.59,0,0,1-.6.58H229.3Z" transform="translate(-212.08 -240.76)"/></svg>