<svg height="512pt" viewBox="-34 0 512 512.04955" width="512pt" xmlns="http://www.w3.org/2000/svg"><path d="m.0234375 290.132812c-.02734375 121.429688 97.5703125 220.324219 218.9882815 221.898438 121.421875 1.574219 221.550781-94.753906 224.671875-216.144531 3.125-121.386719-91.917969-222.734375-213.257813-227.40625v-17.28125h17.066407c14.136718 0 25.597656-11.460938 25.597656-25.597657 0-14.140624-11.460938-25.601562-25.597656-25.601562h-51.199219c-14.140625 0-25.601563 11.460938-25.601563 25.601562 0 14.136719 11.460938 25.597657 25.601563 25.597657h17.066406v17.28125c-119.054687 4.707031-213.183594 102.507812-213.3359375 221.652343zm187.7343745-264.53125c0-4.714843 3.820313-8.535156 8.535157-8.535156h51.199219c4.710937 0 8.53125 3.820313 8.53125 8.535156 0 4.710938-3.820313 8.53125-8.53125 8.53125h-51.199219c-4.714844 0-8.535157-3.820312-8.535157-8.53125zm238.933594 264.53125c0 113.109376-91.691406 204.800782-204.800781 204.800782-113.105469 0-204.800781-91.691406-204.800781-204.800782 0-113.105468 91.695312-204.800781 204.800781-204.800781 113.054687.132813 204.667969 91.746094 204.800781 204.800781zm0 0"/><path d="m315.3125 127.402344c-57.828125-33.347656-129.046875-33.347656-186.878906 0-.136719.070312-.296875.070312-.441406.144531-.148438.078125-.214844.222656-.351563.308594-28.179687 16.4375-51.625 39.882812-68.0625 68.0625-.085937.136719-.222656.210937-.304687.347656-.085938.136719-.078126.300781-.148438.445313-33.347656 57.828124-33.347656 129.050781 0 186.878906.070312.144531.070312.300781.148438.445312.074218.144532.289062.347656.417968.535156 16.429688 28.097657 39.835938 51.472657 67.949219 67.875.136719.085938.214844.222657.351563.308594.136718.085938.433593.160156.648437.265625 57.714844 33.175781 128.71875 33.175781 186.433594 0 .214843-.105469.445312-.148437.648437-.265625.207032-.121094.214844-.222656.351563-.308594 28.117187-16.410156 51.523437-39.800781 67.949219-67.90625.128906-.1875.300781-.335937.417968-.539062.121094-.203125.078125-.296875.148438-.445312 33.347656-57.828126 33.347656-129.046876 0-186.878907-.070313-.144531-.070313-.296875-.148438-.441406-.074218-.148437-.21875-.214844-.304687-.34375-16.433594-28.183594-39.882813-51.632813-68.0625-68.070313-.136719-.085937-.214844-.222656-.351563-.308593-.136718-.082031-.261718-.039063-.410156-.109375zm49.777344 70.203125-7.050782 4.070312c-2.660156 1.515625-4.308593 4.339844-4.3125 7.402344-.007812 3.058594 1.625 5.890625 4.28125 7.417969 2.65625 1.523437 5.925782 1.507812 8.566407-.039063l7.058593-4.078125c11.027344 21.488282 17.332032 45.09375 18.488282 69.222656h-25.164063c-4.710937 0-8.53125 3.820313-8.53125 8.53125 0 4.714844 3.820313 8.535157 8.53125 8.535157h25.164063c-1.15625 24.128906-7.460938 47.730469-18.488282 69.222656l-7.058593-4.082031c-2.640625-1.546875-5.910157-1.5625-8.566407-.035156-2.65625 1.523437-4.289062 4.355468-4.28125 7.417968.003907 3.0625 1.652344 5.886719 4.3125 7.398438l7.050782 4.070312c-13.140625 20.265625-30.40625 37.53125-50.671875 50.671875l-4.070313-7.050781c-1.511718-2.660156-4.335937-4.308594-7.398437-4.3125-3.0625-.007812-5.894531 1.625-7.417969 4.28125-1.527344 2.65625-1.511719 5.925781.035156 8.566406l4.082032 7.058594c-21.492188 11.027344-45.09375 17.332031-69.222657 18.488281v-25.164062c0-4.710938-3.820312-8.53125-8.535156-8.53125-4.710937 0-8.53125 3.820312-8.53125 8.53125v25.164062c-24.128906-1.15625-47.734375-7.460937-69.222656-18.488281l4.078125-7.058594c1.546875-2.640625 1.5625-5.910156.039062-8.566406-1.527344-2.65625-4.359375-4.289062-7.417968-4.28125-3.0625.003906-5.886719 1.652344-7.402344 4.3125l-4.070313 7.050781c-20.265625-13.140625-37.53125-30.40625-50.667969-50.671875l7.046876-4.070312c2.660156-1.511719 4.308593-4.335938 4.316406-7.398438.007812-3.0625-1.628906-5.894531-4.285156-7.417968-2.652344-1.527344-5.921876-1.511719-8.566407.035156l-7.054687 4.082031c-11.03125-21.492187-17.335938-45.09375-18.492188-69.222656h25.164063c4.714843 0 8.535156-3.820313 8.535156-8.535157 0-4.710937-3.820313-8.53125-8.535156-8.53125h-25.164063c1.15625-24.128906 7.460938-47.734374 18.492188-69.222656l7.054687 4.078125c2.644531 1.546875 5.914063 1.5625 8.566407.039063 2.65625-1.527344 4.292968-4.359375 4.285156-7.417969-.007813-3.0625-1.65625-5.886719-4.316406-7.402344l-7.046876-4.070312c13.136719-20.265625 30.402344-37.53125 50.667969-50.671875l4.070313 7.050781c1.515625 2.660156 4.339844 4.308594 7.402344 4.316406 3.058593.003907 5.890624-1.628906 7.417968-4.285156 1.523438-2.65625 1.507813-5.921875-.039062-8.566406l-4.078125-7.054688c21.488281-11.03125 45.09375-17.335937 69.222656-18.492187v25.164062c0 4.714844 3.820313 8.535156 8.53125 8.535156 4.714844 0 8.535156-3.820312 8.535156-8.535156v-25.164062c24.128907 1.15625 47.730469 7.460937 69.222657 18.492187l-4.082032 7.054688c-1.546875 2.644531-1.5625 5.910156-.035156 8.566406 1.523438 2.65625 4.355469 4.289063 7.417969 4.285156 3.0625-.007812 5.886719-1.65625 7.398437-4.316406l4.070313-7.050781c20.265625 13.140625 37.53125 30.40625 50.671875 50.671875zm0 0"/><path d="m230.425781 266.101562v-86.902343c0-4.710938-3.820312-8.53125-8.535156-8.53125-4.710937 0-8.53125 3.820312-8.53125 8.53125v86.902343c-11.757813 4.15625-18.808594 16.179688-16.699219 28.46875 2.109375 12.285157 12.761719 21.269532 25.230469 21.269532s23.125-8.984375 25.230469-21.269532c2.109375-12.289062-4.941406-24.3125-16.695313-28.46875zm-8.535156 32.566407c-4.710937 0-8.53125-3.820313-8.53125-8.535157 0-4.710937 3.820313-8.53125 8.53125-8.53125 4.714844 0 8.535156 3.820313 8.535156 8.53125 0 4.714844-3.820312 8.535157-8.535156 8.535157zm0 0"/></svg>