<svg id="Capa_1" data-name="Capa 1" xmlns="http://www.w3.org/2000/svg" viewBox="0 0 64 65.07"><title>1</title><path d="M59.52,22.49a7.46,7.46,0,1,0-9.18.84A5.33,5.33,0,0,0,48,27.73V35.2H43.73V29.87a7.47,7.47,0,0,0-6.58-7.41,7.47,7.47,0,1,0-10.3,0,7.47,7.47,0,0,0-6.58,7.41V35.2H16V27.73a5.33,5.33,0,0,0-2.34-4.41,7.47,7.47,0,1,0-9.18-.84A5.33,5.33,0,0,0,0,27.73v16A5.34,5.34,0,0,0,4.27,49V65.07H6.4v-16H16V64a1.07,1.07,0,0,0,1.07,1.07h6.4A1.07,1.07,0,0,0,24.53,64V46.93h6.4v16H26.67v2.13H37.33V62.93H33.07v-16h6.4V64a1.07,1.07,0,0,0,1.07,1.07h6.4A1.07,1.07,0,0,0,48,64V49.07h9.6v16h2.13V49A5.34,5.34,0,0,0,64,43.73v-16A5.33,5.33,0,0,0,59.52,22.49ZM49.07,17.07A5.33,5.33,0,1,1,54.4,22.4,5.34,5.34,0,0,1,49.07,17.07Zm-22.4,0A5.33,5.33,0,1,1,32,22.4,5.34,5.34,0,0,1,26.67,17.07Zm7,7.47L32,29l-1.66-4.43ZM22.4,29.87a5.34,5.34,0,0,1,5.33-5.33h.33L31,32.37a1.07,1.07,0,0,0,2,0l2.94-7.84h.33a5.34,5.34,0,0,1,5.33,5.33V35.2H37.33a1.07,1.07,0,0,0-1.07,1.07v4.27H27.73V36.27a1.07,1.07,0,0,0-1.07-1.07H22.4ZM4.27,17.07A5.33,5.33,0,1,1,9.6,22.4,5.34,5.34,0,0,1,4.27,17.07ZM22.4,62.93H18.13V48a1.07,1.07,0,0,0-1.07-1.07H5.33a3.2,3.2,0,0,1-3.2-3.2v-16a3.2,3.2,0,0,1,3.2-3.2h5.33a3.2,3.2,0,0,1,3.2,3.2v8.53a1.07,1.07,0,0,0,1.07,1.07H25.6v3.2H10.67v-9.6H8.53V41.6A1.07,1.07,0,0,0,9.6,42.67h9.6a3.2,3.2,0,0,1,3.2,3.2ZM39.59,44.8H24.41a5.33,5.33,0,0,0-.95-2.13H40.54A5.33,5.33,0,0,0,39.59,44.8Zm22.28-1.07a3.2,3.2,0,0,1-3.2,3.2H46.93A1.07,1.07,0,0,0,45.87,48V62.93H41.6V45.87a3.2,3.2,0,0,1,3.2-3.2h9.6a1.07,1.07,0,0,0,1.07-1.07V30.93H53.33v9.6H38.4v-3.2H49.07a1.07,1.07,0,0,0,1.07-1.07V27.73a3.2,3.2,0,0,1,3.2-3.2h5.33a3.2,3.2,0,0,1,3.2,3.2Z"/><rect x="30.93" y="35.2" width="2.13" height="2.13"/><path d="M26.67,0H11.73a1.07,1.07,0,0,0-1.07,1.07V6.4a1.07,1.07,0,0,0,1.07,1.07H16V9.6a1.07,1.07,0,0,0,1.71.85l4-3h5A1.07,1.07,0,0,0,27.73,6.4V1.07A1.07,1.07,0,0,0,26.67,0ZM25.6,5.33H21.33a1.07,1.07,0,0,0-.64.21L18.13,7.47V6.4a1.07,1.07,0,0,0-1.07-1.07H12.8V2.13H25.6Z"/><rect x="37.33" y="3.2" width="2.13" height="2.13"/><rect x="41.6" y="3.2" width="2.13" height="2.13"/><rect x="45.87" y="3.2" width="2.13" height="2.13"/></svg>