<svg id="Capa_1" data-name="Capa 1" xmlns="http://www.w3.org/2000/svg" viewBox="0 0 52.57 64"><title>2</title><path d="M635.49,216.2H589.78a1.14,1.14,0,0,0-1.14,1.14v3.43h-3.43a1.14,1.14,0,0,0-1.14,1.14v52.57a5.72,5.72,0,0,0,5.71,5.71h41.14a1.14,1.14,0,0,0,1.14-1.14v-3.43h3.43a1.14,1.14,0,0,0,1.14-1.14V217.35A1.14,1.14,0,0,0,635.49,216.2Zm-5.71,58.29v3.43h-40a3.43,3.43,0,0,1-3.43-3.43V223.06h34.29v8a1.14,1.14,0,0,0,1.14,1.14h8Zm-6.86-44.57v-5.24l5.24,5.24Zm11.43,43.43h-2.29V231.06s0,0,0-.07a1.11,1.11,0,0,0-.06-.3,1.08,1.08,0,0,0,0-.11,1.13,1.13,0,0,0-.22-.32h0l-9.14-9.14h0a1.14,1.14,0,0,0-.32-.22l-.11,0a1.11,1.11,0,0,0-.29-.06H590.92v-2.29h43.43Z" transform="translate(-584.07 -216.2)"/><rect x="6.86" y="13.71" width="25.14" height="2.29"/><rect x="6.86" y="18.29" width="25.14" height="2.29"/><path d="M595.49,240.2a4.57,4.57,0,1,0,4.57,4.57A4.58,4.58,0,0,0,595.49,240.2Zm0,6.86a2.29,2.29,0,1,1,2.29-2.29A2.29,2.29,0,0,1,595.49,247.06Z" transform="translate(-584.07 -216.2)"/><path d="M595.49,252.78a4.57,4.57,0,1,0,4.57,4.57A4.58,4.58,0,0,0,595.49,252.78Zm0,6.86a2.29,2.29,0,1,1,2.29-2.29A2.29,2.29,0,0,1,595.49,259.63Z" transform="translate(-584.07 -216.2)"/><path d="M595.49,265.35a4.57,4.57,0,1,0,4.57,4.57A4.58,4.58,0,0,0,595.49,265.35Zm0,6.86a2.29,2.29,0,1,1,2.29-2.29A2.29,2.29,0,0,1,595.49,272.2Z" transform="translate(-584.07 -216.2)"/><rect x="19.43" y="27.43" width="21.71" height="2.29"/><rect x="19.43" y="40" width="21.71" height="2.29"/><rect x="19.43" y="52.57" width="21.71" height="2.29"/></svg>