<svg id="Capa_1" data-name="Capa 1" xmlns="http://www.w3.org/2000/svg" viewBox="0 0 64 64"><title>3</title><path d="M755.79,265.28h-3.2V221.55a5.34,5.34,0,0,0-5.33-5.33h-44.8a1.07,1.07,0,0,0-1.07,1.07v6.4h-2.13a3.2,3.2,0,0,0,0,6.4h2.13v4.27h-2.13a3.2,3.2,0,0,0,0,6.4h2.13V245h-2.13a3.2,3.2,0,0,0,0,6.4h2.13v4.27h-2.13a3.2,3.2,0,0,0,0,6.4h2.13v4.27h-2.13a3.2,3.2,0,0,0,0,6.4h2.13v6.4a1.07,1.07,0,0,0,1.07,1.07h44.8a5.34,5.34,0,0,0,5.33-5.33v-1.07h3.2a4.27,4.27,0,0,0,0-8.53Zm-56.53-37.33a1.07,1.07,0,0,1,0-2.13h6.29a1.23,1.23,0,0,1,1,.49l.06.09a.84.84,0,0,1,.07.18,1,1,0,0,1,0,.21,1.16,1.16,0,0,1,0,.25,1.05,1.05,0,0,1,0,.19,1,1,0,0,1-.12.23,1,1,0,0,1-.09.14,1.05,1.05,0,0,1-.24.18l-.11.07a1,1,0,0,1-.43.1h-6.4Zm0,10.67a1.07,1.07,0,0,1,0-2.13h6.29a1.23,1.23,0,0,1,1,.49l.06.09a.84.84,0,0,1,.07.18,1,1,0,0,1,0,.21,1.16,1.16,0,0,1,0,.25,1.05,1.05,0,0,1,0,.19,1,1,0,0,1-.12.23,1,1,0,0,1-.09.14,1.05,1.05,0,0,1-.24.18l-.11.07a1,1,0,0,1-.43.1h-6.4Zm0,10.67a1.07,1.07,0,0,1,0-2.13h6.29a1.23,1.23,0,0,1,1,.49l.06.09a.84.84,0,0,1,.07.18,1,1,0,0,1,0,.21,1.16,1.16,0,0,1,0,.25,1.05,1.05,0,0,1,0,.19,1,1,0,0,1-.12.23,1,1,0,0,1-.09.14,1.05,1.05,0,0,1-.24.18l-.11.07a1,1,0,0,1-.43.1h-6.4Zm0,10.67a1.07,1.07,0,0,1,0-2.13h6.29a1.23,1.23,0,0,1,1,.49l.06.09a.84.84,0,0,1,.07.18,1,1,0,0,1,0,.21,1.16,1.16,0,0,1,0,.25,1.05,1.05,0,0,1,0,.19,1,1,0,0,1-.12.23,1,1,0,0,1-.09.14,1.05,1.05,0,0,1-.24.18l-.11.07a1,1,0,0,1-.43.1h-6.4Zm0,10.67a1.07,1.07,0,0,1,0-2.13h6.29a1.23,1.23,0,0,1,1,.49l.06.09a.84.84,0,0,1,.07.18,1,1,0,0,1,0,.21,1.16,1.16,0,0,1,0,.25,1.05,1.05,0,0,1,0,.19,1,1,0,0,1-.12.23,1,1,0,0,1-.09.14,1.05,1.05,0,0,1-.24.18l-.11.07a1,1,0,0,1-.43.1h-6.4Zm51.2,1.07h-2.13v-4.27h2.13Zm0-6.4H719.52a1.05,1.05,0,0,0-.42.09l-7.47,3.2a1.07,1.07,0,0,0,0,2l7.47,3.2a1.05,1.05,0,0,0,.42.09h30.93v1.07a3.2,3.2,0,0,1-3.2,3.2H703.52v-5.33h2.13a3.21,3.21,0,0,0,.67-.07l.2-.06a3.24,3.24,0,0,0,.43-.14l.23-.13a3,3,0,0,0,.33-.2l.22-.18a3.44,3.44,0,0,0,.27-.26l.09-.09s.06-.09.09-.14a3.3,3.3,0,0,0,.21-.31c0-.08.09-.16.13-.24a3.29,3.29,0,0,0,.15-.36c0-.08.06-.17.08-.25a3.27,3.27,0,0,0,.07-.4c0-.09,0-.18,0-.27s0-.06,0-.1a3,3,0,0,0,0-.31c0-.07,0-.15,0-.22s0,0,0-.06,0-.15-.06-.23a3,3,0,0,0-.1-.34,3.29,3.29,0,0,0-.15-.32l-.09-.16a3.19,3.19,0,0,0-2.74-1.57h-2.13v-4.27h2.13a3.21,3.21,0,0,0,.67-.07l.2-.06a3.24,3.24,0,0,0,.43-.14l.23-.13a3,3,0,0,0,.33-.2l.22-.18A3.44,3.44,0,0,0,708,261l.09-.09s.06-.09.09-.14a3.3,3.3,0,0,0,.21-.31c0-.08.09-.16.13-.24a3.29,3.29,0,0,0,.15-.36c0-.08.06-.17.08-.25a3.27,3.27,0,0,0,.07-.4c0-.09,0-.18,0-.27s0-.06,0-.1a3,3,0,0,0,0-.31c0-.07,0-.15,0-.22s0,0,0-.06,0-.15-.06-.23a3,3,0,0,0-.1-.34,3.29,3.29,0,0,0-.15-.32l-.09-.16a3.19,3.19,0,0,0-2.74-1.57h-2.13v-4.27h2.13a3.21,3.21,0,0,0,.67-.07l.2-.06a3.24,3.24,0,0,0,.43-.14l.23-.13a3,3,0,0,0,.33-.2l.22-.18a3.44,3.44,0,0,0,.27-.26l.09-.09s.06-.09.09-.14a3.3,3.3,0,0,0,.21-.31c0-.08.09-.16.13-.24a3.29,3.29,0,0,0,.15-.36c0-.08.06-.17.08-.25a3.27,3.27,0,0,0,.07-.4c0-.09,0-.18,0-.27s0-.06,0-.1a3,3,0,0,0,0-.31c0-.07,0-.15,0-.22s0,0,0-.06,0-.15-.06-.23a3,3,0,0,0-.1-.34,3.29,3.29,0,0,0-.15-.32l-.09-.16a3.19,3.19,0,0,0-2.74-1.57h-2.13v-4.27h2.13a3.21,3.21,0,0,0,.67-.07l.2-.06a3.23,3.23,0,0,0,.43-.14l.23-.13a3,3,0,0,0,.33-.2l.22-.18a3.44,3.44,0,0,0,.27-.26l.09-.09s.06-.09.09-.14a3.3,3.3,0,0,0,.21-.31c0-.08.09-.16.13-.24a3.29,3.29,0,0,0,.15-.36c0-.08.06-.17.08-.25a3.27,3.27,0,0,0,.07-.4c0-.09,0-.18,0-.27s0-.06,0-.1a3,3,0,0,0,0-.31c0-.07,0-.15,0-.22s0,0,0-.06,0-.15-.06-.23a3,3,0,0,0-.1-.34,3.29,3.29,0,0,0-.15-.32l-.09-.16a3.19,3.19,0,0,0-2.74-1.57h-2.13v-4.27h2.13a3.21,3.21,0,0,0,.67-.07l.2-.06a3.23,3.23,0,0,0,.43-.14l.23-.13a3,3,0,0,0,.33-.2l.22-.18A3.44,3.44,0,0,0,708,229l.09-.09s.06-.09.09-.14a3.3,3.3,0,0,0,.21-.31c0-.08.09-.16.13-.24a3.29,3.29,0,0,0,.15-.36c0-.08.06-.17.08-.25a3.27,3.27,0,0,0,.07-.4c0-.09,0-.18,0-.27s0-.06,0-.1a3,3,0,0,0,0-.31c0-.07,0-.15,0-.22s0,0,0-.06,0-.15-.06-.23a3,3,0,0,0-.1-.34,3.29,3.29,0,0,0-.15-.32l-.09-.16a3.19,3.19,0,0,0-2.74-1.57h-2.13v-5.33h43.73a3.2,3.2,0,0,1,3.2,3.2Zm-4.27,2.13v4.27h-25.6v-4.27Zm-27.73.55v3.17l-3.69-1.58Zm37.33,3.72h-3.2v-4.27h3.2a2.13,2.13,0,0,1,0,4.27Z" transform="translate(-696.06 -216.21)"/><path d="M721.66,251.41h-8.53a1.07,1.07,0,0,0-1.07,1.07V261a1.07,1.07,0,0,0,1.07,1.07h8.53a1.07,1.07,0,0,0,1.07-1.07v-8.53A1.07,1.07,0,0,0,721.66,251.41Zm-1.07,8.53h-6.4v-6.4h6.4Z" transform="translate(-696.06 -216.21)"/><rect x="28.8" y="35.2" width="21.33" height="2.13"/><rect x="28.8" y="39.47" width="21.33" height="2.13"/><rect x="28.8" y="43.73" width="21.33" height="2.13"/><path d="M721.66,237.55h-8.53a1.07,1.07,0,0,0-1.07,1.07v8.53a1.07,1.07,0,0,0,1.07,1.07h8.53a1.07,1.07,0,0,0,1.07-1.07v-8.53A1.07,1.07,0,0,0,721.66,237.55Zm-1.07,8.53h-6.4v-6.4h6.4Z" transform="translate(-696.06 -216.21)"/><rect x="28.8" y="21.33" width="21.33" height="2.13"/><rect x="28.8" y="25.6" width="21.33" height="2.13"/><rect x="28.8" y="29.87" width="21.33" height="2.13"/><path d="M721.66,223.68h-8.53a1.07,1.07,0,0,0-1.07,1.07v8.53a1.07,1.07,0,0,0,1.07,1.07h8.53a1.07,1.07,0,0,0,1.07-1.07v-8.53A1.07,1.07,0,0,0,721.66,223.68Zm-1.07,8.53h-6.4v-6.4h6.4Z" transform="translate(-696.06 -216.21)"/><rect x="28.8" y="7.47" width="21.33" height="2.13"/><rect x="28.8" y="11.73" width="21.33" height="2.13"/><rect x="28.8" y="16" width="21.33" height="2.13"/></svg>