<svg id="Capa_1" data-name="Capa 1" xmlns="http://www.w3.org/2000/svg" viewBox="0 0 64 64"><title>4</title><path d="M996.92,211.79H935.21a1.14,1.14,0,0,0-1.14,1.14v62.86h2.29V223.21h59.43v52.57h2.29V212.93A1.14,1.14,0,0,0,996.92,211.79Zm-60.57,9.14v-6.86h59.43v6.86Z" transform="translate(-934.06 -211.79)"/><path d="M969.68,252.64a17.2,17.2,0,1,0-5.29,4.8l15,15a3.57,3.57,0,0,0,5-5Zm-28.76-10a14.86,14.86,0,1,1,14.86,14.86A14.87,14.87,0,0,1,940.92,242.64Zm41,28.57a1.28,1.28,0,0,1-.91-.37l-14.7-14.7a17.2,17.2,0,0,0,1.9-1.73L982.83,269a1.28,1.28,0,0,1-.91,2.19Z" transform="translate(-934.06 -211.79)"/><path d="M964.92,234.64h-4.57V233.5a3.43,3.43,0,0,0-3.43-3.43h-2.29a3.43,3.43,0,0,0-3.43,3.43v1.14h-4.57a1.14,1.14,0,0,0-1.14,1.14V249.5a1.14,1.14,0,0,0,1.14,1.14h18.29a1.14,1.14,0,0,0,1.14-1.14V235.79A1.14,1.14,0,0,0,964.92,234.64Zm-1.14,5.71a1.14,1.14,0,0,1-1.14,1.14H948.92a1.14,1.14,0,0,1-1.14-1.14v-3.43h16Zm-10.29-6.86a1.14,1.14,0,0,1,1.14-1.14h2.29a1.14,1.14,0,0,1,1.14,1.14v1.14h-4.57Zm-5.71,14.86v-4.78a3.39,3.39,0,0,0,1.14.21h5.71v1.14h2.29v-1.14h5.71a3.39,3.39,0,0,0,1.14-.21v4.78Z" transform="translate(-934.06 -211.79)"/><path d="M959.21,264.36h-3.43v-1.14a2.29,2.29,0,0,0-2.29-2.29h-4.57a2.29,2.29,0,0,0-2.29,2.29v1.14h-3.43a1.14,1.14,0,0,0-1.14,1.14v9.14a1.14,1.14,0,0,0,1.14,1.14h16a1.14,1.14,0,0,0,1.14-1.14V265.5A1.14,1.14,0,0,0,959.21,264.36Zm-10.29-1.14h4.57v1.14h-4.57Zm9.14,10.29H944.35v-6.86h13.71Z" transform="translate(-934.06 -211.79)"/><rect x="41.14" y="16" width="16" height="2.29"/><rect x="41.14" y="20.57" width="16" height="2.29"/><rect x="41.14" y="25.14" width="16" height="2.29"/><rect x="41.14" y="34.29" width="16" height="2.29"/><rect x="41.14" y="38.86" width="16" height="2.29"/><rect x="43.43" y="43.43" width="13.71" height="2.29"/><rect x="53.71" y="52.57" width="3.43" height="2.29"/><rect x="53.71" y="57.14" width="3.43" height="2.29"/><rect x="53.71" y="61.71" width="3.43" height="2.29"/><circle cx="5.71" cy="5.71" r="1.14"/><circle cx="10.29" cy="5.71" r="1.14"/><circle cx="14.86" cy="5.71" r="1.14"/><rect x="16" y="57.14" width="2.29" height="2.29"/></svg>