<svg id="Capa_1" data-name="Capa 1" xmlns="http://www.w3.org/2000/svg" viewBox="0 0 31.96 36"><defs><style>.cls-1{fill:#fff;}</style></defs><title>6</title><path d="M244.64,59.44a.57.57,0,0,0,.21-.45V32.87a.57.57,0,0,0-.57-.57H227.66a3.26,3.26,0,0,0-6.22,0h-1.84a.57.57,0,0,0-.57.57V65.43a.57.57,0,0,0,.57.57h18.24a.58.58,0,0,0,.45-.21Z" transform="translate(-219.02 -30)"/><polygon points="19.4 34.03 19.4 29.57 23.87 29.57 19.4 34.03"/><path d="M224.55,31.15a2.11,2.11,0,0,1,1.88,1.15h-3.75A2.12,2.12,0,0,1,224.55,31.15Z" transform="translate(-219.02 -30)"/><path class="cls-1" d="M220.17,33.45h6.48v4a1,1,0,0,1-1.91,0v-2.3a.57.57,0,0,0-1.15,0v2.3a2.11,2.11,0,0,0,4.21,0v-4h15.9v25h-5.86a.57.57,0,0,0-.57.57v5.86h-17.1Z" transform="translate(-219.02 -30)"/><path d="M239.68,56.46a.57.57,0,0,0,0-1.15H224.19a.57.57,0,1,0,0,1.15Z" transform="translate(-219.02 -30)"/><path d="M224.19,53h15.49a.57.57,0,0,0,0-1.15H224.19a.57.57,0,1,0,0,1.15Z" transform="translate(-219.02 -30)"/><path d="M224.19,49.57h15.49a.57.57,0,0,0,0-1.15H224.19a.57.57,0,1,0,0,1.15Z" transform="translate(-219.02 -30)"/><path d="M224.19,46.12h15.49a.57.57,0,0,0,0-1.15H224.19a.57.57,0,1,0,0,1.15Z" transform="translate(-219.02 -30)"/><path d="M224.19,42.68h15.49a.57.57,0,0,0,0-1.15H224.19a.57.57,0,1,0,0,1.15Z" transform="translate(-219.02 -30)"/><path d="M247.34,32.3h-.77a.57.57,0,1,0,0,1.15h.19v31.4h-6.13a.57.57,0,1,0,0,1.15h6.71a.57.57,0,0,0,.57-.57V32.87A.57.57,0,0,0,247.34,32.3Z" transform="translate(-219.02 -30)"/><path d="M250.41,32.3h-.77a.57.57,0,1,0,0,1.15h.19v31.4h-.19a.57.57,0,1,0,0,1.15h.77a.57.57,0,0,0,.57-.57V32.87A.57.57,0,0,0,250.41,32.3Z" transform="translate(-219.02 -30)"/></svg>